<svg id="visual" viewBox="0 0 960 540" width="960" height="540" xmlns="http://www.w3.org/2000/svg" xmlns:xlink="http://www.w3.org/1999/xlink" version="1.1"><path d="M0 82L17.8 80.2C35.7 78.3 71.3 74.7 106.8 89C142.3 103.3 177.7 135.7 213.2 154.7C248.7 173.7 284.3 179.3 320 180.3C355.7 181.3 391.3 177.7 426.8 164.2C462.3 150.7 497.7 127.3 533.2 110.2C568.7 93 604.3 82 640 83.7C675.7 85.3 711.3 99.7 746.8 118.7C782.3 137.7 817.7 161.3 853.2 153.3C888.7 145.3 924.3 105.7 942.2 85.8L960 66L960 0L942.2 0C924.3 0 888.7 0 853.2 0C817.7 0 782.3 0 746.8 0C711.3 0 675.7 0 640 0C604.3 0 568.7 0 533.2 0C497.7 0 462.3 0 426.8 0C391.3 0 355.7 0 320 0C284.3 0 248.7 0 213.2 0C177.7 0 142.3 0 106.8 0C71.3 0 35.7 0 17.8 0L0 0Z" fill="#c42828"></path><path d="M0 384L17.8 351.7C35.7 319.3 71.3 254.7 106.8 244C142.3 233.3 177.7 276.7 213.2 292C248.7 307.3 284.3 294.7 320 309C355.7 323.3 391.3 364.7 426.8 375.5C462.3 386.3 497.7 366.7 533.2 353.2C568.7 339.7 604.3 332.3 640 334C675.7 335.7 711.3 346.3 746.8 348.2C782.3 350 817.7 343 853.2 328.7C888.7 314.3 924.3 292.7 942.2 281.8L960 271L960 64L942.2 83.8C924.3 103.7 888.7 143.3 853.2 151.3C817.7 159.3 782.3 135.7 746.8 116.7C711.3 97.7 675.7 83.3 640 81.7C604.3 80 568.7 91 533.2 108.2C497.7 125.3 462.3 148.7 426.8 162.2C391.3 175.7 355.7 179.3 320 178.3C284.3 177.3 248.7 171.7 213.2 152.7C177.7 133.7 142.3 101.3 106.8 87C71.3 72.7 35.7 76.3 17.8 78.2L0 80Z" fill="#881619"></path><path d="M0 541L17.8 541C35.7 541 71.3 541 106.8 541C142.3 541 177.7 541 213.2 541C248.7 541 284.3 541 320 541C355.7 541 391.3 541 426.8 541C462.3 541 497.7 541 533.2 541C568.7 541 604.3 541 640 541C675.7 541 711.3 541 746.8 541C782.3 541 817.7 541 853.2 541C888.7 541 924.3 541 942.2 541L960 541L960 269L942.2 279.8C924.3 290.7 888.7 312.3 853.2 326.7C817.7 341 782.3 348 746.8 346.2C711.3 344.3 675.7 333.7 640 332C604.3 330.3 568.7 337.7 533.2 351.2C497.7 364.7 462.3 384.3 426.8 373.5C391.3 362.7 355.7 321.3 320 307C284.3 292.7 248.7 305.3 213.2 290C177.7 274.7 142.3 231.3 106.8 242C71.3 252.7 35.7 317.3 17.8 349.7L0 382Z" fill="#500707"></path></svg>