<svg id="visual" viewBox="0 0 960 540" width="960" height="540" xmlns="http://www.w3.org/2000/svg" xmlns:xlink="http://www.w3.org/1999/xlink" version="1.1"><path d="M0 249L32 243.7C64 238.3 128 227.7 192 212.5C256 197.3 320 177.7 384 163.3C448 149 512 140 576 148C640 156 704 181 768 179.2C832 177.3 896 148.7 928 134.3L960 120L960 0L928 0C896 0 832 0 768 0C704 0 640 0 576 0C512 0 448 0 384 0C320 0 256 0 192 0C128 0 64 0 32 0L0 0Z" fill="#f69493"></path><path d="M0 298L32 294.3C64 290.7 128 283.3 192 270.7C256 258 320 240 384 236.5C448 233 512 244 576 254.8C640 265.7 704 276.3 768 268.2C832 260 896 233 928 219.5L960 206L960 118L928 132.3C896 146.7 832 175.3 768 177.2C704 179 640 154 576 146C512 138 448 147 384 161.3C320 175.7 256 195.3 192 210.5C128 225.7 64 236.3 32 241.7L0 247Z" fill="#ee7372"></path><path d="M0 422L32 432C64 442 128 462 192 454.8C256 447.7 320 413.3 384 402.5C448 391.7 512 404.3 576 406.2C640 408 704 399 768 399.8C832 400.7 896 411.3 928 416.7L960 422L960 204L928 217.5C896 231 832 258 768 266.2C704 274.3 640 263.7 576 252.8C512 242 448 231 384 234.5C320 238 256 256 192 268.7C128 281.3 64 288.7 32 292.3L0 296Z" fill="#d65757"></path><path d="M0 541L32 541C64 541 128 541 192 541C256 541 320 541 384 541C448 541 512 541 576 541C640 541 704 541 768 541C832 541 896 541 928 541L960 541L960 420L928 414.7C896 409.3 832 398.7 768 397.8C704 397 640 406 576 404.2C512 402.3 448 389.7 384 400.5C320 411.3 256 445.7 192 452.8C128 460 64 440 32 430L0 420Z" fill="#b04343"></path></svg>